<?xml version="1.0" encoding="UTF-8" standalone="no"?><!DOCTYPE svg PUBLIC "-//W3C//DTD SVG 1.1//EN" "http://www.w3.org/Graphics/SVG/1.1/DTD/svg11.dtd"><svg width="100%" height="100%" viewBox="0 0 38 44" version="1.1" xmlns="http://www.w3.org/2000/svg" xmlns:xlink="http://www.w3.org/1999/xlink" xml:space="preserve" xmlns:serif="http://www.serif.com/" style="fill-rule:evenodd;clip-rule:evenodd;stroke-linejoin:round;stroke-miterlimit:2;"><rect id="Nexigon-Logo" serif:id="Nexigon Logo" x="0" y="0" width="38" height="43.9" style="fill:none;"/><clipPath id="_clip1"><rect x="0" y="0" width="38" height="43.9"/></clipPath><g clip-path="url(#_clip1)"><g><path d="M19.007,-0l19.008,10.981l-0,21.961l-19.008,10.981l-19.007,-10.981l0,-21.961l19.007,-10.981Z" style="fill:#0ea5e9;"/><path d="M19.007,-0l19.008,10.981l-0,21.961l-19.008,10.981l-19.007,-10.981l0,-21.961l19.007,-10.981Zm0,4.62l-15.007,8.669l0,17.344l15.007,8.67l15.008,-8.67l-0,-17.344l-15.008,-8.669Z" style="fill:#7dd3fc;"/><path d="M26.685,16.024l-2.172,2.172c-0.8,0.8 -2.099,0.8 -2.899,-0l-2.172,-2.172c-0.801,-0.8 -0.801,-2.099 -0,-2.9l2.172,-2.172c0.8,-0.8 2.099,-0.8 2.899,0l2.172,2.172c0.8,0.801 0.8,2.1 -0,2.9Z" style="fill:#fff;stroke:#fff;stroke-width:0.5px;"/><path d="M19.873,31.545l-0.795,-2.967c-0.293,-1.093 0.356,-2.218 1.449,-2.511l2.967,-0.795c1.093,-0.293 2.219,0.357 2.511,1.45l0.795,2.967c0.293,1.093 -0.356,2.218 -1.449,2.511l-2.967,0.795c-1.093,0.293 -2.218,-0.357 -2.511,-1.45Z" style="fill:#fff;stroke:#fff;stroke-width:0.5px;"/><path d="M9.961,18.1l2.967,0.795c1.093,0.293 1.743,1.418 1.45,2.511l-0.795,2.967c-0.293,1.093 -1.418,1.742 -2.511,1.45l-2.967,-0.795c-1.093,-0.293 -1.743,-1.418 -1.45,-2.511l0.795,-2.967c0.293,-1.093 1.418,-1.743 2.511,-1.45Z" style="fill:#fff;stroke:#fff;stroke-width:0.5px;"/></g></g></svg>